<?xml version="1.0" encoding="utf-8"?>
<!-- Generator: Adobe Illustrator 24.0.2, SVG Export Plug-In . SVG Version: 6.00 Build 0)  -->
<svg version="1.1" id="Layer_1" xmlns="http://www.w3.org/2000/svg" xmlns:xlink="http://www.w3.org/1999/xlink" x="0px" y="0px"
	 viewBox="0 0 100 100" style="enable-background:new 0 0 100 100;" xml:space="preserve">
<style type="text/css">
	.st0{fill:#808080;}
	.st1{fill:#FFFFFF;}
	.st2{fill:#808080;stroke:#FFFFFF;stroke-miterlimit:10;}
</style>
<path class="st0" d="M66.3,87.1H33.4c-5.5,0-10-4.5-10-10V25.5h52.9v51.6C76.3,82.6,71.8,87.1,66.3,87.1z"/>
<path class="st1" d="M34.7,34.6L34.7,34.6c1.4,0,2.6,0.9,2.6,2v41.6c0,1.1-1.2,2-2.6,2s-2.6-0.9-2.6-2V36.5
	C32.1,35.5,33.2,34.6,34.7,34.6z"/>
<path class="st1" d="M50.1,34.6L50.1,34.6c1.4,0,2.6,0.9,2.6,2v41.6c0,1.1-1.2,2-2.6,2s-2.6-0.9-2.6-2V36.5
	C47.5,35.5,48.7,34.6,50.1,34.6z"/>
<path class="st1" d="M65.5,34.6L65.5,34.6c1.4,0,2.6,0.9,2.6,2v41.6c0,1.1-1.2,2-2.6,2c-1.4,0-2.6-0.9-2.6-2V36.5
	C62.9,35.5,64.1,34.6,65.5,34.6z"/>
<path class="st2" d="M49.8,12.9c3.5,0,6.3,2.8,6.3,6.3c0,3.5-2.8,6.3-6.3,6.3c-3.5,0-6.3-2.8-6.3-6.3C43.6,15.7,46.4,12.9,49.8,12.9
	z"/>
<path class="st2" d="M79.6,29.6H20.4c-2.7,0-4.9-2.2-4.9-4.9v0c0-2.7,2.2-4.9,4.9-4.9h59.3c2.7,0,4.9,2.2,4.9,4.9v0
	C84.6,27.4,82.4,29.6,79.6,29.6z"/>
</svg>
